<svg xmlns="http://www.w3.org/2000/svg" xmlns:xlink="http://www.w3.org/1999/xlink" width="205" height="50" version="1.1" viewBox="0 0 205 50"><desc>Created with Lunacy</desc><g id="Login-Button"><g id="Buttons-/-White/-grey-text-/-mid"><path id="Rectangle" fill="#FFF" stroke="none" d="M24.999 0L180.001 0Q180.615 0 181.228 0.0301124Q181.841 0.0602248 182.451 0.120377Q183.062 0.180529 183.669 0.270576Q184.276 0.360624 184.878 0.480349Q185.48 0.600074 186.075 0.749189Q186.671 0.898303 187.258 1.07645Q187.845 1.25459 188.423 1.46134Q189.001 1.66809 189.568 1.90294Q190.135 2.13778 190.689 2.40017Q191.244 2.66256 191.785 2.95185Q192.327 3.24114 192.853 3.55664Q193.379 3.87214 193.89 4.21309Q194.4 4.55404 194.893 4.91961Q195.386 5.28519 195.86 5.67451Q196.335 6.06383 196.789 6.47596Q197.244 6.88809 197.678 7.32204Q198.112 7.75598 198.524 8.2107Q198.936 8.66541 199.325 9.1398Q199.715 9.61419 200.08 10.1071Q200.446 10.6 200.787 11.1103Q201.128 11.6206 201.443 12.1469Q201.759 12.6733 202.048 13.2146Q202.337 13.7558 202.6 14.3105Q202.862 14.8653 203.097 15.4323Q203.332 15.9993 203.539 16.5771Q203.745 17.1549 203.924 17.7422Q204.102 18.3294 204.251 18.9247Q204.4 19.52 204.52 20.1219Q204.639 20.7238 204.729 21.3309Q204.819 21.9379 204.88 22.5487Q204.94 23.1594 204.97 23.7724Q205 24.3853 205 24.999L205 25.001Q205 25.6147 204.97 26.2276Q204.94 26.8406 204.88 27.4513Q204.819 28.0621 204.729 28.6691Q204.639 29.2762 204.52 29.8781Q204.4 30.48 204.251 31.0753Q204.102 31.6706 203.924 32.2578Q203.745 32.8451 203.539 33.4229Q203.332 34.0007 203.097 34.5677Q202.862 35.1347 202.6 35.6894Q202.337 36.2442 202.048 36.7854Q201.759 37.3267 201.443 37.8531Q201.128 38.3794 200.787 38.8897Q200.446 39.4 200.08 39.8929Q199.715 40.3858 199.325 40.8602Q198.936 41.3346 198.524 41.7893Q198.112 42.244 197.678 42.678Q197.244 43.1119 196.789 43.524Q196.335 43.9362 195.86 44.3255Q195.386 44.7148 194.893 45.0804Q194.4 45.446 193.89 45.7869Q193.379 46.1279 192.853 46.4434Q192.327 46.7589 191.785 47.0481Q191.244 47.3374 190.689 47.5998Q190.135 47.8622 189.568 48.0971Q189.001 48.3319 188.423 48.5387Q187.845 48.7454 187.258 48.9235Q186.671 49.1017 186.075 49.2508Q185.48 49.3999 184.878 49.5196Q184.276 49.6394 183.669 49.7294Q183.062 49.8195 182.451 49.8796Q181.841 49.9398 181.228 49.9699Q180.615 50 180.001 50L24.999 50Q24.3853 50 23.7724 49.9699Q23.1594 49.9398 22.5487 49.8796Q21.9379 49.8195 21.3309 49.7294Q20.7238 49.6394 20.1219 49.5196Q19.52 49.3999 18.9247 49.2508Q18.3294 49.1017 17.7422 48.9235Q17.1549 48.7454 16.5771 48.5386Q15.9993 48.3319 15.4323 48.0971Q14.8653 47.8622 14.3105 47.5998Q13.7558 47.3374 13.2146 47.0481Q12.6733 46.7589 12.1469 46.4433Q11.6206 46.1278 11.1103 45.7869Q10.6 45.4459 10.1071 45.0804Q9.61419 44.7148 9.1398 44.3255Q8.66541 43.9362 8.2107 43.524Q7.75598 43.1119 7.32204 42.678Q6.88809 42.244 6.47596 41.7893Q6.06383 41.3346 5.67451 40.8602Q5.28519 40.3858 4.91961 39.8929Q4.55404 39.4 4.21309 38.8897Q3.87214 38.3794 3.55664 37.8531Q3.24114 37.3267 2.95185 36.7854Q2.66256 36.2442 2.40017 35.6894Q2.13778 35.1347 1.90294 34.5677Q1.66809 34.0007 1.46134 33.4229Q1.25459 32.8451 1.07645 32.2578Q0.898303 31.6706 0.749189 31.0753Q0.600074 30.48 0.480349 29.8781Q0.360624 29.2762 0.270576 28.6691Q0.180529 28.0621 0.120377 27.4513Q0.0602248 26.8406 0.0301124 26.2276Q0 25.6147 0 25.001L0 24.999Q0 24.3853 0.0301124 23.7724Q0.0602248 23.1594 0.120377 22.5487Q0.180529 21.9379 0.270576 21.3309Q0.360624 20.7238 0.480349 20.1219Q0.600074 19.52 0.749189 18.9247Q0.898303 18.3294 1.07645 17.7422Q1.25459 17.1549 1.46134 16.5771Q1.66809 15.9993 1.90294 15.4323Q2.13778 14.8653 2.40017 14.3105Q2.66256 13.7558 2.95185 13.2146Q3.24114 12.6733 3.55664 12.1469Q3.87214 11.6206 4.21309 11.1103Q4.55404 10.6 4.91961 10.1071Q5.28519 9.61419 5.67451 9.1398Q6.06383 8.66541 6.47596 8.2107Q6.88809 7.75598 7.32204 7.32204Q7.75598 6.88809 8.2107 6.47596Q8.66541 6.06383 9.1398 5.67451Q9.61419 5.28519 10.1071 4.91961Q10.6 4.55404 11.1103 4.21309Q11.6206 3.87214 12.1469 3.55664Q12.6733 3.24114 13.2146 2.95185Q13.7558 2.66256 14.3105 2.40017Q14.8653 2.13778 15.4323 1.90294Q15.9993 1.66809 16.5771 1.46134Q17.1549 1.25459 17.7422 1.07645Q18.3294 0.898303 18.9247 0.749189Q19.52 0.600074 20.1219 0.480349Q20.7238 0.360624 21.3309 0.270576Q21.9379 0.180529 22.5487 0.120377Q23.1594 0.0602248 23.7724 0.0301124Q24.3853 0 24.999 0L24.999 0Z"/><g id="Login" fill="#50505A"><path d="M21.2109 6.67773Q20.9531 6.67773 20.7715 6.50195Q20.5898 6.32617 20.5898 6.05664Q20.5898 5.78711 20.7715 5.6084Q20.9531 5.42969 21.2109 5.42969Q21.4746 5.42969 21.6592 5.6084Q21.8438 5.78711 21.8438 6.05664Q21.8438 6.31445 21.6592 6.49609Q21.4746 6.67774 21.2109 6.67773ZM5.46094 14.2012L1.10156 14.2012L1.10156 5.79883L2.08594 5.79883L2.08594 13.3105L5.46094 13.3105L5.46094 14.2012ZM9.12891 14.3418Q7.79883 14.3418 7.00488 13.501Q6.21094 12.6602 6.21094 11.2715Q6.21094 9.75977 7.03711 8.91016Q7.86328 8.06055 9.26953 8.06055Q10.6113 8.06055 11.3643 8.88672Q12.1172 9.71289 12.1172 11.1777Q12.1172 12.6133 11.3057 13.4775Q10.4941 14.3418 9.12891 14.3418ZM15.6094 17.0254Q18.7734 17.0254 18.7734 13.7207L18.7734 8.20117L17.8125 8.20117L17.8125 9.0332L17.7891 9.0332Q17.2031 8.06055 15.9902 8.06055Q14.7129 8.06055 13.9775 8.96289Q13.2422 9.86523 13.2422 11.3945Q13.2422 12.7422 13.9248 13.542Q14.6074 14.3418 15.7266 14.3418Q17.1035 14.3418 17.7891 13.1934L17.8125 13.1934L17.8125 13.8496Q17.8125 16.2051 15.5977 16.2051Q14.6777 16.2051 13.6641 15.6426L13.6641 16.6035Q14.4961 17.0254 15.6094 17.0254ZM27.6445 14.2012L28.6055 14.2012L28.6055 10.5332Q28.6055 9.33203 28.084 8.69629Q27.5625 8.06055 26.5781 8.06055Q25.2891 8.06055 24.6094 9.19727L24.5859 9.19727L24.5859 8.20117L23.625 8.20117L23.625 14.2012L24.5859 14.2012L24.5859 10.7793Q24.5859 9.95313 25.0576 9.41113Q25.5293 8.86914 26.25 8.86914Q27.6445 8.86914 27.6445 10.7793L27.6445 14.2012ZM21.6797 14.2012L20.7188 14.2012L20.7188 8.20117L21.6797 8.20117L21.6797 14.2012ZM9.19922 8.86914Q8.27344 8.86914 7.73438 9.49902Q7.19531 10.1289 7.19531 11.2363Q7.19531 12.3027 7.74023 12.918Q8.28516 13.5332 9.19922 13.5332Q10.1309 13.5332 10.6318 12.9297Q11.1328 12.3262 11.1328 11.2129Q11.1328 10.0879 10.6318 9.47852Q10.1309 8.86914 9.19922 8.86914ZM17.8125 10.6035L17.8125 11.4883Q17.8125 12.3848 17.3057 12.959Q16.7988 13.5332 15.9902 13.5332Q15.1934 13.5332 14.71 12.9326Q14.2266 12.332 14.2266 11.3301Q14.2266 10.1641 14.7305 9.5166Q15.2344 8.86914 16.125 8.86914Q16.8457 8.86914 17.3291 9.37891Q17.8125 9.88867 17.8125 10.6035Z" transform="translate(87.27832 14)"/></g></g></g></svg>